# xmcd
#
# Track frame offsets:
#	182
#	16182
#	30915
#	45367
#	63340
#	77440
#	93237
#	107755
#	125155
#	137505
#	152635
#	165487
#
# Disc length: 2436 seconds
#
# Revision: 4
# Processed by: cddbd v1.4PL0 Copyright (c) Steve Scherf et al.
# Submitted via: audiograbber 1.82.00
#
DISCID=8109820c
DTITLE=Pam Tillis - Greatest Hits
DYEAR=1997
DGENRE=Country
TTITLE0=Land Of The Living
TTITLE1=All The Good Ones Are Gone
TTITLE2=Don't Tell Me What To Do
TTITLE3=Maybe It Was Memphis
TTITLE4=Shake The Sugar Tree
TTITLE5=Let That Pony Run
TTITLE6=Cleopatra, Queen Of Denial
TTITLE7=Spilled Perfume
TTITLE8=When You Walk In The Room
TTITLE9=In Between Dances
TTITLE10=MI VIDA LOCA (My Crazy Life)
TTITLE11=The River And The Highway
EXTD=
EXTT0=
EXTT1=
EXTT2=
EXTT3=
EXTT4=
EXTT5=
EXTT6=
EXTT7=
EXTT8=
EXTT9=
EXTT10=
EXTT11=
PLAYORDER=
